M48
METRIC,LZ,000.000
;FILE_FORMAT=3:3
;TYPE=PLATED
;Layer: PTH_Through
;EasyEDA v6.5.54, 2026-09-21 04:09:53
;05c5b878ee5d4a82a683c83241055972,514c6cc1849444d89c4331f6548c3519,10
;Gerber Generator version 0.2
;Holesize 1 = 0.305 mm
T01C0.305
;Holesize 2 = 0.850 mm
T02C0.850
;Holesize 3 = 0.915 mm
T03C0.915
%
G05
G90
T01
X057173Y001122
X039313Y019042
X017225Y038880
T02
X064620Y-004377G85X064620Y-004383
X051920Y-019623G85X051920Y-019617
X054460Y-019623G85X054460Y-019617
X057000Y-019623G85X057000Y-019617
X059540Y-019623G85X059540Y-019617
X062080Y-019623G85X062080Y-019617
X064620Y-019623G85X064620Y-019617
X049380Y-019623G85X049380Y-019617
X062080Y-004377G85X062080Y-004383
X059540Y-004377G85X059540Y-004383
X057000Y-004377G85X057000Y-004383
X054460Y-004377G85X054460Y-004383
X051920Y-004377G85X051920Y-004383
X049380Y-004377G85X049380Y-004383
T03
X017110Y032000
X019650Y032000
X022190Y032000
X024730Y032000
X027270Y032000
X029810Y032000
X032350Y032000
X034890Y032000
M30
