G04 Layer: TopSilkscreenLayer*
G04 EasyEDA v6.5.54, 2026-09-21 04:09:53*
G04 05c5b878ee5d4a82a683c83241055972,514c6cc1849444d89c4331f6548c3519,10*
G04 Gerber Generator version 0.2*
G04 Scale: 100 percent, Rotated: No, Reflected: No *
G04 Dimensions in millimeters *
G04 leading zeros omitted , absolute positions ,4 integer and 5 decimal *
%FSLAX45Y45*%
%MOMM*%

%ADD10C,0.1524*%
%ADD11C,0.1500*%
%ADD12C,0.1219*%
%ADD13C,0.2540*%
%ADD14C,0.1270*%
%ADD15C,0.0194*%

%LPD*%
G36*
X5497372Y3398418D02*
G01*
X5492902Y3398113D01*
X5482031Y3396640D01*
X5477713Y3391306D01*
X5452668Y3387598D01*
X5444896Y3383940D01*
X5412282Y3379622D01*
X5405577Y3376117D01*
X5373776Y3372764D01*
X5361482Y3369310D01*
X5352592Y3367430D01*
X5322519Y3364890D01*
X5313375Y3362858D01*
X5307431Y3360623D01*
X5265724Y3357118D01*
X5247894Y3352952D01*
X5237886Y3351682D01*
X5202275Y3349294D01*
X5186680Y3345992D01*
X5173319Y3344011D01*
X5134356Y3341573D01*
X5119878Y3338322D01*
X5106466Y3336188D01*
X5078679Y3333699D01*
X5065979Y3329432D01*
X5044389Y3326180D01*
X5033010Y3320592D01*
X5023408Y3318154D01*
X5019243Y3313937D01*
X5013502Y3310940D01*
X5004409Y3299968D01*
X5005171Y3277209D01*
X5010505Y3271520D01*
X5019235Y3268217D01*
X5052415Y3268217D01*
X5056327Y3274872D01*
X5064201Y3277057D01*
X5086908Y3280308D01*
X5094630Y3283559D01*
X5127294Y3288233D01*
X5133238Y3291281D01*
X5149900Y3293668D01*
X5164378Y3295142D01*
X5177739Y3299155D01*
X5186680Y3300476D01*
X5217871Y3303676D01*
X5227320Y3307029D01*
X5273090Y3311702D01*
X5281980Y3314852D01*
X5328716Y3319526D01*
X5339588Y3322726D01*
X5381904Y3327044D01*
X5390337Y3330600D01*
X5419394Y3333902D01*
X5426100Y3335223D01*
X5431891Y3338220D01*
X5453938Y3341928D01*
X5461863Y3345942D01*
X5476189Y3349650D01*
X5486044Y3356101D01*
X5488787Y3356101D01*
X5500725Y3366109D01*
X5506262Y3366109D01*
X5530342Y3361842D01*
X5539689Y3357321D01*
X5556402Y3354781D01*
X5567527Y3349650D01*
X5582920Y3347059D01*
X5595366Y3341878D01*
X5612638Y3338372D01*
X5617616Y3335070D01*
X5637225Y3330498D01*
X5645454Y3326333D01*
X5658815Y3323640D01*
X5670042Y3318408D01*
X5685536Y3314852D01*
X5690616Y3311499D01*
X5708345Y3307079D01*
X5715609Y3302812D01*
X5729478Y3299256D01*
X5736793Y3294938D01*
X5748680Y3292398D01*
X5760974Y3285947D01*
X5765901Y3285947D01*
X5776874Y3280257D01*
X5791708Y3275990D01*
X5799124Y3271621D01*
X5810300Y3268979D01*
X5819190Y3263950D01*
X5833313Y3260344D01*
X5838698Y3256127D01*
X5850382Y3253333D01*
X5862370Y3246983D01*
X5867400Y3246983D01*
X5880201Y3240278D01*
X5890463Y3237788D01*
X5899353Y3232759D01*
X5913323Y3229203D01*
X5919419Y3224834D01*
X5933897Y3221177D01*
X5937351Y3218078D01*
X5945022Y3215487D01*
X5947816Y3213303D01*
X5947765Y3088284D01*
X5945632Y2969158D01*
X5943396Y2944672D01*
X5939942Y2881172D01*
X5937707Y2856026D01*
X5934405Y2843326D01*
X5932068Y2816606D01*
X5928918Y2795422D01*
X5925566Y2780944D01*
X5924143Y2740863D01*
X5926632Y2711348D01*
X5929731Y2703931D01*
X5932373Y2687421D01*
X5934710Y2679598D01*
X5937758Y2676093D01*
X5941415Y2661361D01*
X5940145Y2658110D01*
X5927191Y2654350D01*
X5923686Y2651252D01*
X5906211Y2646781D01*
X5902706Y2643632D01*
X5888228Y2639872D01*
X5874918Y2633421D01*
X5870092Y2633421D01*
X5857798Y2626969D01*
X5845962Y2624429D01*
X5837021Y2619248D01*
X5826201Y2616606D01*
X5815838Y2611221D01*
X5804712Y2608834D01*
X5798413Y2604262D01*
X5782411Y2599842D01*
X5779109Y2596845D01*
X5765749Y2593086D01*
X5758027Y2588666D01*
X5744921Y2584602D01*
X5741212Y2581249D01*
X5728258Y2577541D01*
X5715965Y2571038D01*
X5712460Y2571038D01*
X5701131Y2564688D01*
X5688634Y2561031D01*
X5685840Y2557678D01*
X5675122Y2554478D01*
X5662168Y2547975D01*
X5637682Y2536494D01*
X5632094Y2533243D01*
X5622086Y2528620D01*
X5606491Y2519984D01*
X5595366Y2514447D01*
X5587695Y2508707D01*
X5584952Y2508707D01*
X5578652Y2503424D01*
X5571794Y2499918D01*
X5547410Y2479903D01*
X5541924Y2484120D01*
X5539892Y2484170D01*
X5528564Y2492806D01*
X5523585Y2495346D01*
X5518404Y2500325D01*
X5511850Y2504236D01*
X5498490Y2513177D01*
X5492089Y2517038D01*
X5485130Y2522016D01*
X5474512Y2526792D01*
X5474512Y2528874D01*
X5460441Y2535224D01*
X5457799Y2538476D01*
X5447233Y2542438D01*
X5440934Y2547670D01*
X5436971Y2547670D01*
X5428335Y2553614D01*
X5417362Y2557830D01*
X5412028Y2561996D01*
X5400497Y2565806D01*
X5395315Y2569768D01*
X5383784Y2573578D01*
X5378399Y2577744D01*
X5366715Y2581148D01*
X5363972Y2584450D01*
X5351475Y2588006D01*
X5342585Y2593136D01*
X5328716Y2596946D01*
X5326176Y2599994D01*
X5310276Y2604668D01*
X5306923Y2607614D01*
X5290667Y2612136D01*
X5283504Y2616606D01*
X5272430Y2619044D01*
X5262168Y2624378D01*
X5248503Y2627884D01*
X5241239Y2632100D01*
X5227878Y2634843D01*
X5220157Y2639161D01*
X5201615Y2643225D01*
X5196128Y2646832D01*
X5178856Y2650337D01*
X5166258Y2655620D01*
X5149900Y2658160D01*
X5137658Y2663240D01*
X5114747Y2666796D01*
X5107635Y2670505D01*
X5079034Y2674620D01*
X5071414Y2680462D01*
X5070856Y2682951D01*
X5070856Y3182975D01*
X5067909Y3217468D01*
X5062474Y3235299D01*
X5059222Y3251758D01*
X5055666Y3255670D01*
X5052415Y3268217D01*
X5019235Y3268217D01*
X5019903Y3267964D01*
X5025186Y3260902D01*
X5028895Y3242614D01*
X5032451Y3235502D01*
X5032552Y2682951D01*
X5036312Y2671927D01*
X5048097Y2663799D01*
X5064201Y2660954D01*
X5073091Y2655824D01*
X5087569Y2652166D01*
X5091277Y2648813D01*
X5106924Y2644800D01*
X5114290Y2640279D01*
X5129784Y2636672D01*
X5133340Y2633421D01*
X5151831Y2628849D01*
X5157724Y2624582D01*
X5172456Y2621280D01*
X5179974Y2616911D01*
X5193944Y2613406D01*
X5200040Y2608935D01*
X5213400Y2606344D01*
X5222290Y2601264D01*
X5234990Y2598013D01*
X5241239Y2593695D01*
X5245049Y2592324D01*
X5246471Y2586634D01*
X5244033Y2566009D01*
X5239613Y2548534D01*
X5235956Y2476957D01*
X5234178Y2333294D01*
X5231892Y2309926D01*
X5229352Y2265375D01*
X5224119Y2240889D01*
X5221681Y2210816D01*
X5218430Y2187905D01*
X5218430Y2164029D01*
X5220563Y2150668D01*
X5223814Y2121052D01*
X5228488Y2111349D01*
X5232133Y2098700D01*
X5272735Y2098700D01*
X5274259Y2346655D01*
X5278424Y2384501D01*
X5280964Y2420061D01*
X5286298Y2451150D01*
X5289702Y2508961D01*
X5289651Y2531516D01*
X5286349Y2565908D01*
X5282234Y2574290D01*
X5285790Y2575255D01*
X5292090Y2575509D01*
X5301538Y2569921D01*
X5312156Y2566720D01*
X5316016Y2563266D01*
X5329123Y2558745D01*
X5333644Y2554732D01*
X5343702Y2550566D01*
X5348122Y2546807D01*
X5358180Y2542438D01*
X5361127Y2538882D01*
X5369306Y2536240D01*
X5374843Y2531313D01*
X5384088Y2527706D01*
X5390235Y2522067D01*
X5392978Y2522067D01*
X5403799Y2514701D01*
X5411063Y2511755D01*
X5411063Y2509824D01*
X5422747Y2503932D01*
X5429046Y2498648D01*
X5431383Y2498648D01*
X5444744Y2489758D01*
X5447436Y2489758D01*
X5451703Y2484983D01*
X5462828Y2479649D01*
X5477306Y2469743D01*
X5487873Y2464968D01*
X5487873Y2463088D01*
X5499608Y2457145D01*
X5505907Y2451912D01*
X5508091Y2451912D01*
X5520537Y2442972D01*
X5523179Y2442972D01*
X5529122Y2437536D01*
X5538571Y2432964D01*
X5545836Y2427579D01*
X5556656Y2426106D01*
X5565597Y2428544D01*
X5573623Y2437993D01*
X5578043Y2443835D01*
X5584240Y2445359D01*
X5592013Y2450642D01*
X5603138Y2453132D01*
X5610961Y2458364D01*
X5623458Y2461869D01*
X5626252Y2465222D01*
X5636717Y2468372D01*
X5649671Y2475280D01*
X5653430Y2475280D01*
X5663285Y2481732D01*
X5673293Y2484374D01*
X5679998Y2489301D01*
X5692546Y2493111D01*
X5695188Y2496312D01*
X5709310Y2501036D01*
X5712002Y2504236D01*
X5723331Y2507589D01*
X5731205Y2512872D01*
X5742736Y2516581D01*
X5745429Y2519832D01*
X5757214Y2523286D01*
X5762853Y2527706D01*
X5775604Y2532075D01*
X5779109Y2535224D01*
X5791708Y2539949D01*
X5794298Y2543098D01*
X5805830Y2546807D01*
X5812485Y2551785D01*
X5821426Y2554630D01*
X5825998Y2558796D01*
X5837021Y2562453D01*
X5843676Y2567127D01*
X5854649Y2571038D01*
X5859780Y2575814D01*
X5862218Y2569413D01*
X5860796Y2561590D01*
X5856274Y2552801D01*
X5851906Y2532634D01*
X5848502Y2527350D01*
X5844438Y2502306D01*
X5841034Y2495702D01*
X5838799Y2481427D01*
X5836259Y2460955D01*
X5833211Y2450795D01*
X5830925Y2423515D01*
X5828639Y2331059D01*
X5828690Y2158441D01*
X5830874Y2073097D01*
X5833160Y2048205D01*
X5835428Y2040128D01*
X5874308Y2040128D01*
X5877814Y2038756D01*
X5884011Y2038756D01*
X5891580Y2033168D01*
X5900724Y2028748D01*
X5903671Y2025192D01*
X5914237Y2019858D01*
X5915761Y2017420D01*
X5925566Y2013204D01*
X5930341Y2008733D01*
X5938316Y2006244D01*
X5946190Y2000910D01*
X5956757Y1997760D01*
X5968034Y1989175D01*
X5966815Y1981403D01*
X5964326Y1951228D01*
X5965342Y1849983D01*
X5970016Y1828850D01*
X5970066Y1822145D01*
X5968746Y1817420D01*
X5959754Y1813356D01*
X5951931Y1807108D01*
X5949289Y1807108D01*
X5938367Y1799336D01*
X5935980Y1799336D01*
X5928461Y1792630D01*
X5925870Y1792630D01*
X5913831Y1784248D01*
X5907735Y1781149D01*
X5907735Y1779320D01*
X5894374Y1772564D01*
X5894374Y1770634D01*
X5885992Y1766773D01*
X5882640Y1763979D01*
X5874308Y1762506D01*
X5874308Y1935988D01*
X5876747Y1942896D01*
X5888888Y1947418D01*
X5890717Y1947418D01*
X5893358Y1950618D01*
X5903061Y1953920D01*
X5914948Y1963267D01*
X5924346Y1973884D01*
X5925769Y1982876D01*
X5920689Y1985568D01*
X5906058Y1984197D01*
X5893765Y1979930D01*
X5880455Y1978406D01*
X5874308Y1980793D01*
X5874308Y2040128D01*
X5835428Y2040128D01*
X5836259Y2037080D01*
X5837682Y2025954D01*
X5838748Y2020366D01*
X5831230Y2008733D01*
X5829960Y1981911D01*
X5824524Y1971395D01*
X5821680Y1962454D01*
X5818936Y1959152D01*
X5815990Y1953564D01*
X5811977Y1931314D01*
X5808370Y1916836D01*
X5806948Y1786534D01*
X5808167Y1725269D01*
X5815380Y1707438D01*
X5818632Y1700123D01*
X5818632Y1692960D01*
X5775756Y1649171D01*
X5761736Y1632864D01*
X5754624Y1624126D01*
X5749848Y1616354D01*
X5746242Y1621891D01*
X5743956Y1661820D01*
X5741771Y1674266D01*
X5742025Y1691893D01*
X5741822Y1700682D01*
X5737148Y1714093D01*
X5729274Y1726895D01*
X5725668Y1727911D01*
X5718098Y1729435D01*
X5701538Y1743100D01*
X5694476Y1747469D01*
X5690412Y1752549D01*
X5687618Y1752549D01*
X5682234Y1758340D01*
X5672175Y1763471D01*
X5667959Y1768144D01*
X5665114Y1768144D01*
X5658459Y1773783D01*
X5647690Y1778507D01*
X5642406Y1782622D01*
X5633212Y1785061D01*
X5620969Y1790852D01*
X5593029Y1790954D01*
X5586069Y1785112D01*
X5570880Y1782419D01*
X5561939Y1778406D01*
X5554167Y1776120D01*
X5545226Y1774647D01*
X5534101Y1769364D01*
X5521858Y1766773D01*
X5511850Y1761591D01*
X5500725Y1759102D01*
X5491784Y1753971D01*
X5480304Y1751279D01*
X5473039Y1745894D01*
X5465064Y1744522D01*
X5453938Y1738426D01*
X5445048Y1735582D01*
X5438343Y1730603D01*
X5429910Y1727860D01*
X5423103Y1722120D01*
X5405424Y1721104D01*
X5402173Y1716430D01*
X5402173Y1709572D01*
X5399481Y1706930D01*
X5390946Y1706930D01*
X5389118Y1711909D01*
X5387746Y1813255D01*
X5385206Y1836978D01*
X5387289Y1849272D01*
X5382158Y1855825D01*
X5379770Y1866696D01*
X5373878Y1875231D01*
X5368188Y1878075D01*
X5360720Y1879498D01*
X5354421Y1885645D01*
X5338114Y1899056D01*
X5325872Y1908200D01*
X5320842Y1910740D01*
X5315864Y1915363D01*
X5308041Y1920748D01*
X5295798Y1926640D01*
X5289143Y1934464D01*
X5287924Y2031492D01*
X5285282Y2037689D01*
X5280609Y2043988D01*
X5278526Y2067966D01*
X5279085Y2092045D01*
X5272735Y2098700D01*
X5232133Y2098700D01*
X5233822Y2092756D01*
X5237124Y2083866D01*
X5237784Y2074925D01*
X5234838Y2058416D01*
X5235752Y1941931D01*
X5229301Y1939289D01*
X5221732Y1934159D01*
X5201158Y1930603D01*
X5192572Y1926183D01*
X5176723Y1922881D01*
X5169103Y1918360D01*
X5154371Y1914956D01*
X5147564Y1910791D01*
X5134610Y1907387D01*
X5125415Y1902104D01*
X5114493Y1899412D01*
X5108905Y1895043D01*
X5096459Y1891487D01*
X5090718Y1887423D01*
X5078120Y1882698D01*
X5076799Y1880514D01*
X5064201Y1874570D01*
X5047488Y1872284D01*
X5043576Y1864461D01*
X5043576Y1834134D01*
X5077561Y1834134D01*
X5088178Y1841703D01*
X5100167Y1846173D01*
X5102758Y1849323D01*
X5114290Y1853082D01*
X5118760Y1856943D01*
X5133594Y1861820D01*
X5136286Y1865020D01*
X5147310Y1868322D01*
X5159095Y1875078D01*
X5162499Y1875078D01*
X5174792Y1881530D01*
X5186934Y1885035D01*
X5189626Y1888286D01*
X5201158Y1892046D01*
X5213400Y1898192D01*
X5227777Y1905000D01*
X5230114Y1903577D01*
X5251246Y1887016D01*
X5255717Y1876653D01*
X5266283Y1861718D01*
X5276545Y1861718D01*
X5282234Y1866188D01*
X5286908Y1862734D01*
X5298694Y1856993D01*
X5304078Y1852066D01*
X5313019Y1849120D01*
X5316677Y1845106D01*
X5327345Y1841550D01*
X5330037Y1838299D01*
X5345430Y1833625D01*
X5349443Y1825498D01*
X5347766Y1785416D01*
X5347563Y1698548D01*
X5349900Y1674063D01*
X5350976Y1670202D01*
X5435447Y1670202D01*
X5436108Y1685188D01*
X5446268Y1690776D01*
X5453938Y1695754D01*
X5457494Y1695754D01*
X5466181Y1701647D01*
X5476189Y1705051D01*
X5484063Y1710232D01*
X5495442Y1713585D01*
X5498185Y1716938D01*
X5510682Y1720596D01*
X5518505Y1725625D01*
X5531053Y1729130D01*
X5533847Y1732534D01*
X5545988Y1736089D01*
X5558282Y1742541D01*
X5561787Y1742541D01*
X5573725Y1749298D01*
X5585968Y1752549D01*
X5595264Y1747824D01*
X5599430Y1742541D01*
X5602325Y1742541D01*
X5605373Y1738833D01*
X5622899Y1725828D01*
X5625338Y1725828D01*
X5629859Y1721357D01*
X5641035Y1713636D01*
X5651601Y1708810D01*
X5651601Y1706880D01*
X5664403Y1700784D01*
X5666638Y1698091D01*
X5676646Y1693875D01*
X5685332Y1687982D01*
X5688736Y1687982D01*
X5704941Y1679956D01*
X5707075Y1677416D01*
X5704840Y1586992D01*
X5707481Y1519275D01*
X5708497Y1505915D01*
X5697982Y1499209D01*
X5679186Y1488084D01*
X5672175Y1483156D01*
X5659374Y1476349D01*
X5659374Y1474419D01*
X5652160Y1471574D01*
X5641848Y1464157D01*
X5639765Y1464157D01*
X5632246Y1457452D01*
X5630722Y1457452D01*
X5615381Y1446276D01*
X5609183Y1441297D01*
X5601157Y1434084D01*
X5599430Y1434084D01*
X5585358Y1420418D01*
X5578754Y1417624D01*
X5573623Y1419961D01*
X5573623Y1421485D01*
X5561939Y1427784D01*
X5559653Y1430832D01*
X5540806Y1442821D01*
X5535218Y1447139D01*
X5527548Y1451051D01*
X5524144Y1454454D01*
X5514898Y1458569D01*
X5511850Y1462278D01*
X5500725Y1467561D01*
X5493562Y1472488D01*
X5483707Y1478635D01*
X5475020Y1481683D01*
X5463387Y1490319D01*
X5463336Y1552651D01*
X5461254Y1561744D01*
X5457850Y1595628D01*
X5456428Y1601673D01*
X5453430Y1607515D01*
X5449062Y1632508D01*
X5445506Y1637842D01*
X5442000Y1655114D01*
X5435447Y1670202D01*
X5350976Y1670202D01*
X5353304Y1661668D01*
X5348122Y1653641D01*
X5339791Y1649780D01*
X5337098Y1646529D01*
X5325618Y1641449D01*
X5323992Y1638858D01*
X5312511Y1633372D01*
X5298033Y1623466D01*
X5285232Y1616659D01*
X5285232Y1614881D01*
X5277612Y1611274D01*
X5266842Y1603400D01*
X5260492Y1598320D01*
X5255463Y1594967D01*
X5243474Y1585823D01*
X5227878Y1571396D01*
X5220563Y1568907D01*
X5212283Y1574292D01*
X5192318Y1588871D01*
X5189372Y1588871D01*
X5183733Y1594459D01*
X5173319Y1600098D01*
X5166156Y1605026D01*
X5155539Y1611680D01*
X5149799Y1614170D01*
X5143449Y1620062D01*
X5141010Y1620062D01*
X5130342Y1627632D01*
X5124551Y1629054D01*
X5117439Y1634489D01*
X5110530Y1635912D01*
X5106974Y1639824D01*
X5106314Y1713026D01*
X5102555Y1726184D01*
X5099354Y1753514D01*
X5097830Y1759813D01*
X5094681Y1766062D01*
X5091379Y1785416D01*
X5086045Y1797659D01*
X5083606Y1811477D01*
X5077917Y1823923D01*
X5077561Y1834134D01*
X5043576Y1834134D01*
X5043627Y1775409D01*
X5045760Y1732432D01*
X5048961Y1718614D01*
X5051501Y1691893D01*
X5053736Y1677619D01*
X5056784Y1671675D01*
X5060137Y1652473D01*
X5065979Y1640179D01*
X5065979Y1621688D01*
X5067858Y1613357D01*
X5080863Y1597456D01*
X5092344Y1586077D01*
X5117236Y1563878D01*
X5123738Y1559966D01*
X5123738Y1558036D01*
X5134914Y1551990D01*
X5134914Y1549958D01*
X5144363Y1545132D01*
X5145887Y1542542D01*
X5157673Y1537106D01*
X5161330Y1533448D01*
X5173065Y1529537D01*
X5180482Y1524558D01*
X5191150Y1522984D01*
X5201158Y1518564D01*
X5220055Y1516227D01*
X5237226Y1517497D01*
X5244592Y1520596D01*
X5254802Y1530400D01*
X5265724Y1538986D01*
X5274106Y1542338D01*
X5274106Y1544218D01*
X5284673Y1548892D01*
X5290210Y1554073D01*
X5295036Y1555546D01*
X5304688Y1563217D01*
X5307584Y1563268D01*
X5313172Y1568856D01*
X5321757Y1573174D01*
X5324754Y1576120D01*
X5333593Y1581302D01*
X5336590Y1585518D01*
X5339486Y1585518D01*
X5345938Y1591614D01*
X5354980Y1597507D01*
X5379618Y1621739D01*
X5383580Y1629511D01*
X5388203Y1635760D01*
X5389372Y1661160D01*
X5391759Y1663547D01*
X5397550Y1658112D01*
X5400446Y1657146D01*
X5401919Y1636166D01*
X5402224Y1591665D01*
X5404256Y1562709D01*
X5407710Y1552905D01*
X5411165Y1524863D01*
X5415635Y1514805D01*
X5418988Y1496974D01*
X5423662Y1490472D01*
X5424170Y1466951D01*
X5426506Y1461008D01*
X5434634Y1450238D01*
X5446217Y1437995D01*
X5473242Y1414576D01*
X5483250Y1406245D01*
X5485638Y1406245D01*
X5489041Y1401013D01*
X5494375Y1398574D01*
X5504789Y1390650D01*
X5507786Y1390650D01*
X5514238Y1385214D01*
X5524093Y1381302D01*
X5531256Y1376426D01*
X5539689Y1374851D01*
X5551678Y1369212D01*
X5580329Y1366977D01*
X5602986Y1369212D01*
X5607151Y1374495D01*
X5614974Y1382928D01*
X5622645Y1386586D01*
X5622645Y1388516D01*
X5632958Y1392936D01*
X5639714Y1398625D01*
X5648248Y1402029D01*
X5648248Y1403756D01*
X5659932Y1409801D01*
X5662422Y1412900D01*
X5669940Y1416304D01*
X5681116Y1423924D01*
X5686653Y1428496D01*
X5694476Y1434033D01*
X5703366Y1439976D01*
X5711799Y1446885D01*
X5737250Y1471879D01*
X5746038Y1488592D01*
X5746292Y1576070D01*
X5750153Y1578965D01*
X5758027Y1577594D01*
X5767679Y1579778D01*
X5773978Y1586077D01*
X5793587Y1603654D01*
X5815584Y1623923D01*
X5835904Y1643989D01*
X5854954Y1665122D01*
X5859221Y1671828D01*
X5862828Y1674469D01*
X5866841Y1684985D01*
X5873343Y1694637D01*
X5880963Y1698243D01*
X5880963Y1700275D01*
X5891276Y1704695D01*
X5897676Y1710080D01*
X5902706Y1711604D01*
X5909513Y1716735D01*
X5919978Y1721612D01*
X5919978Y1723643D01*
X5931662Y1728825D01*
X5934862Y1732686D01*
X5943244Y1736953D01*
X5945022Y1740001D01*
X5951728Y1743506D01*
X5959500Y1750314D01*
X5961227Y1750314D01*
X5969508Y1757984D01*
X5977331Y1764741D01*
X5995416Y1782267D01*
X6001816Y1791868D01*
X6004661Y1796542D01*
X6004052Y2015185D01*
X5999276Y2020366D01*
X5995670Y2033117D01*
X5988456Y2039874D01*
X5980633Y2042058D01*
X5977940Y2042109D01*
X5969863Y2049627D01*
X5953912Y2062784D01*
X5941669Y2071776D01*
X5936132Y2074722D01*
X5934303Y2077720D01*
X5924956Y2082444D01*
X5920892Y2086102D01*
X5909411Y2092045D01*
X5899353Y2096719D01*
X5888939Y2102256D01*
X5875985Y2104593D01*
X5872276Y2105660D01*
X5869838Y2112568D01*
X5869838Y2401519D01*
X5874207Y2430170D01*
X5878576Y2440178D01*
X5882132Y2464968D01*
X5885332Y2471369D01*
X5887567Y2485847D01*
X5890209Y2544876D01*
X5887821Y2582722D01*
X5889345Y2590190D01*
X5900166Y2594305D01*
X5903823Y2597607D01*
X5914694Y2602280D01*
X5921248Y2607767D01*
X5925362Y2607767D01*
X5931662Y2613050D01*
X5943346Y2618943D01*
X5943346Y2620924D01*
X5950356Y2623362D01*
X5967272Y2635605D01*
X5979972Y2641092D01*
X5982309Y2649778D01*
X5983427Y2767584D01*
X5986729Y2833319D01*
X5989066Y2972511D01*
X5991098Y3062681D01*
X5995670Y3073044D01*
X5999226Y3100222D01*
X6002426Y3109366D01*
X6004763Y3130651D01*
X6004052Y3198571D01*
X5998006Y3211931D01*
X5995720Y3220974D01*
X5990285Y3226054D01*
X5987643Y3232404D01*
X5982309Y3235909D01*
X5982309Y3238652D01*
X5971540Y3249218D01*
X5969254Y3249218D01*
X5961024Y3255772D01*
X5952794Y3258464D01*
X5946597Y3263646D01*
X5935472Y3266948D01*
X5929680Y3271469D01*
X5920536Y3273907D01*
X5912459Y3279140D01*
X5902706Y3281730D01*
X5891580Y3287979D01*
X5883757Y3289554D01*
X5874562Y3294938D01*
X5861964Y3298190D01*
X5855919Y3302558D01*
X5841746Y3306165D01*
X5835904Y3310331D01*
X5822035Y3313836D01*
X5814720Y3318154D01*
X5800852Y3321405D01*
X5793282Y3326079D01*
X5780227Y3328619D01*
X5771235Y3333800D01*
X5756808Y3336848D01*
X5747715Y3341674D01*
X5733440Y3344164D01*
X5724550Y3349244D01*
X5706973Y3352800D01*
X5700014Y3357016D01*
X5681980Y3360674D01*
X5673750Y3364839D01*
X5657697Y3367532D01*
X5646572Y3372662D01*
X5626455Y3376066D01*
X5616498Y3380486D01*
X5594248Y3383838D01*
X5584240Y3388207D01*
X5555284Y3391763D01*
X5540908Y3396284D01*
G37*
G36*
X5105755Y3273704D02*
G01*
X5099812Y3273501D01*
X5094478Y3271977D01*
X5091430Y3267405D01*
X5099151Y3257296D01*
X5108194Y3253689D01*
X5111089Y3253689D01*
X5118303Y3248355D01*
X5128564Y3245764D01*
X5137658Y3240481D01*
X5147716Y3237890D01*
X5156657Y3232708D01*
X5169611Y3229356D01*
X5173319Y3226003D01*
X5188915Y3221532D01*
X5199837Y3215792D01*
X5203647Y3215792D01*
X5211572Y3212490D01*
X5212791Y3210509D01*
X5227878Y3206546D01*
X5236768Y3201466D01*
X5247741Y3199028D01*
X5261254Y3192424D01*
X5265978Y3192424D01*
X5277967Y3186074D01*
X5290210Y3183229D01*
X5299151Y3178098D01*
X5310276Y3175609D01*
X5320639Y3170224D01*
X5331460Y3167583D01*
X5340400Y3162452D01*
X5352592Y3159861D01*
X5361482Y3154680D01*
X5372658Y3152241D01*
X5382666Y3147060D01*
X5396941Y3143402D01*
X5403799Y3139135D01*
X5419344Y3135579D01*
X5422900Y3132277D01*
X5438343Y3128772D01*
X5449722Y3123387D01*
X5462828Y3120948D01*
X5473954Y3115767D01*
X5492902Y3112008D01*
X5499608Y3108502D01*
X5514390Y3108350D01*
X5518810Y3112363D01*
X5520131Y3118916D01*
X5518810Y3122371D01*
X5508091Y3127806D01*
X5506720Y3129991D01*
X5492851Y3134258D01*
X5485130Y3138728D01*
X5471769Y3142538D01*
X5468416Y3145485D01*
X5452160Y3150006D01*
X5444947Y3154426D01*
X5433872Y3156864D01*
X5423865Y3162096D01*
X5409488Y3165754D01*
X5405678Y3169208D01*
X5389829Y3173272D01*
X5384292Y3176930D01*
X5365953Y3181451D01*
X5362600Y3184448D01*
X5345531Y3189020D01*
X5338114Y3193389D01*
X5326989Y3195878D01*
X5315762Y3201162D01*
X5300370Y3204768D01*
X5296763Y3208020D01*
X5279237Y3212490D01*
X5274005Y3215894D01*
X5256326Y3220313D01*
X5249011Y3224530D01*
X5235651Y3227324D01*
X5225643Y3232454D01*
X5211165Y3235502D01*
X5202275Y3240227D01*
X5187797Y3243326D01*
X5178856Y3247999D01*
X5163312Y3251250D01*
X5153253Y3256991D01*
X5149748Y3256991D01*
X5144566Y3262579D01*
X5132120Y3267151D01*
X5123180Y3271367D01*
G37*
G36*
X5915406Y3210255D02*
G01*
X5865977Y3209950D01*
X5844997Y3208070D01*
X5834786Y3204870D01*
X5826963Y3203600D01*
X5802122Y3201314D01*
X5785764Y3196031D01*
X5766866Y3193338D01*
X5756808Y3188919D01*
X5735980Y3184753D01*
X5730646Y3181248D01*
X5713374Y3177692D01*
X5704840Y3173374D01*
X5687974Y3169005D01*
X5684418Y3165906D01*
X5669940Y3162249D01*
X5664149Y3158032D01*
X5651042Y3154324D01*
X5639917Y3148126D01*
X5632754Y3146602D01*
X5627420Y3142386D01*
X5614873Y3137712D01*
X5613501Y3135528D01*
X5601512Y3130194D01*
X5594248Y3125063D01*
X5589930Y3122676D01*
X5587644Y3119069D01*
X5590743Y3113278D01*
X5598718Y3108350D01*
X5625439Y3108350D01*
X5632246Y3112109D01*
X5651042Y3115868D01*
X5663336Y3120948D01*
X5677611Y3123539D01*
X5687771Y3128619D01*
X5702249Y3131362D01*
X5711190Y3136493D01*
X5721197Y3138017D01*
X5728970Y3140354D01*
X5732475Y3143402D01*
X5750153Y3147009D01*
X5759043Y3152190D01*
X5773521Y3154730D01*
X5781040Y3159099D01*
X5800191Y3163570D01*
X5803595Y3166567D01*
X5824270Y3171240D01*
X5831027Y3174746D01*
X5850890Y3179064D01*
X5859272Y3183331D01*
X5875832Y3185820D01*
X5885891Y3190240D01*
X5907176Y3193643D01*
X5914237Y3195878D01*
X5922162Y3204616D01*
X5920943Y3207715D01*
G37*
G36*
X5111394Y3175711D02*
G01*
X5106466Y3175558D01*
X5101640Y3173628D01*
X5099253Y3165144D01*
X5099405Y3022600D01*
X5101234Y3012592D01*
X5106822Y2991764D01*
X5109108Y2989478D01*
X5126126Y2988868D01*
X5134356Y2983280D01*
X5147411Y2979572D01*
X5153253Y2975406D01*
X5163058Y2972866D01*
X5174589Y2966364D01*
X5178094Y2966364D01*
X5190693Y2959760D01*
X5200040Y2957220D01*
X5213959Y2949498D01*
X5215178Y2947466D01*
X5214975Y2891180D01*
X5213299Y2883408D01*
X5198719Y2883408D01*
X5190032Y2889402D01*
X5175554Y2893009D01*
X5170728Y2896108D01*
X5161076Y2898343D01*
X5138572Y2901848D01*
X5132578Y2899562D01*
X5129326Y2891840D01*
X5129326Y2760218D01*
X5132730Y2753664D01*
X5134457Y2753664D01*
X5137302Y2745841D01*
X5145938Y2735275D01*
X5153253Y2726893D01*
X5159959Y2723337D01*
X5164785Y2718917D01*
X5182209Y2713786D01*
X5192217Y2709976D01*
X5224627Y2709672D01*
X5230317Y2713431D01*
X5231892Y2754223D01*
X5234990Y2757373D01*
X5246928Y2754731D01*
X5257292Y2749194D01*
X5269077Y2746705D01*
X5278018Y2741523D01*
X5290210Y2738932D01*
X5297576Y2734513D01*
X5315915Y2730500D01*
X5323636Y2726080D01*
X5339537Y2722626D01*
X5350256Y2715818D01*
X5353151Y2715818D01*
X5353151Y2687828D01*
X5355640Y2678023D01*
X5367070Y2667711D01*
X5374335Y2661818D01*
X5379974Y2656789D01*
X5389321Y2652014D01*
X5394502Y2648000D01*
X5407152Y2644343D01*
X5410504Y2641396D01*
X5419394Y2638907D01*
X5455056Y2637536D01*
X5462219Y2643581D01*
X5456631Y2656230D01*
X5453735Y2659126D01*
X5456732Y2670657D01*
X5458917Y2695194D01*
X5461152Y2726486D01*
X5461152Y2749753D01*
X5458866Y2775356D01*
X5460187Y2781300D01*
X5467858Y2789174D01*
X5467858Y2794762D01*
X5459476Y2802940D01*
X5449824Y2807157D01*
X5444337Y2811475D01*
X5436362Y2814066D01*
X5428742Y2819247D01*
X5416346Y2822854D01*
X5410504Y2827121D01*
X5398262Y2830372D01*
X5387136Y2834843D01*
X5376367Y2837535D01*
X5374436Y2842564D01*
X5373776Y2885389D01*
X5378145Y2887878D01*
X5384241Y2894126D01*
X5389321Y2890774D01*
X5408574Y2886252D01*
X5416092Y2881934D01*
X5432755Y2879242D01*
X5445048Y2874162D01*
X5463946Y2871470D01*
X5472938Y2867609D01*
X5484926Y2864713D01*
X5509260Y2864459D01*
X5513527Y2869742D01*
X5513527Y2878582D01*
X5504840Y2887116D01*
X5505958Y2991408D01*
X5503621Y3026308D01*
X5505754Y3034030D01*
X5503976Y3042462D01*
X5498490Y3046476D01*
X5481777Y3048965D01*
X5460593Y3055772D01*
X5454243Y3060242D01*
X5434431Y3064306D01*
X5429351Y3067659D01*
X5406339Y3072282D01*
X5401259Y3075635D01*
X5378196Y3079699D01*
X5370220Y3084423D01*
X5359908Y3086354D01*
X5355539Y3081629D01*
X5354015Y2973628D01*
X5353710Y2923590D01*
X5345938Y2921914D01*
X5336997Y2924200D01*
X5328107Y2928416D01*
X5305806Y2931769D01*
X5293258Y2936240D01*
X5267960Y2938576D01*
X5264404Y2939694D01*
X5257190Y2950819D01*
X5251602Y2954680D01*
X5247894Y2958896D01*
X5243017Y2963367D01*
X5241645Y2972511D01*
X5244033Y2992526D01*
X5246471Y3030270D01*
X5243677Y3066034D01*
X5242763Y3084372D01*
X5250688Y3102864D01*
X5250688Y3105505D01*
X5244998Y3118358D01*
X5240375Y3123285D01*
X5229148Y3127044D01*
X5222290Y3131108D01*
X5210048Y3133699D01*
X5201158Y3138830D01*
X5190032Y3141522D01*
X5177993Y3147872D01*
X5172964Y3147872D01*
X5160264Y3154578D01*
X5148427Y3158032D01*
X5145786Y3161233D01*
X5130698Y3165703D01*
X5127955Y3169005D01*
X5112715Y3173577D01*
G37*
G36*
X5538216Y3092450D02*
G01*
X5534101Y3086201D01*
X5534101Y3061563D01*
X5534609Y3045968D01*
X5532882Y2795422D01*
X5527548Y2782062D01*
X5526684Y2708910D01*
X5529122Y2649575D01*
X5531256Y2635097D01*
X5533491Y2606141D01*
X5535879Y2543759D01*
X5539181Y2538730D01*
X5548782Y2538730D01*
X5552998Y2543403D01*
X5554726Y2643987D01*
X5555284Y2912364D01*
X5552287Y3064916D01*
X5550611Y3087878D01*
X5547207Y3091281D01*
G37*
G36*
X5586425Y2421585D02*
G01*
X5579516Y2418232D01*
X5575960Y2410815D01*
X5574487Y2030374D01*
X5576976Y1865579D01*
X5579364Y1818843D01*
X5580430Y1811578D01*
X5585358Y1805889D01*
X5588914Y1807260D01*
X5591708Y1813255D01*
X5595874Y1897888D01*
X5598312Y1985873D01*
X5597245Y2316581D01*
X5594756Y2353360D01*
X5591657Y2413457D01*
X5589473Y2419146D01*
G37*
G36*
X5106314Y1831644D02*
G01*
X5104841Y1830120D01*
X5104841Y1823872D01*
X5114290Y1817928D01*
X5115052Y1815947D01*
X5126532Y1810156D01*
X5132832Y1804924D01*
X5135727Y1804924D01*
X5146649Y1797405D01*
X5152136Y1795678D01*
X5158841Y1790700D01*
X5167731Y1787855D01*
X5174437Y1782825D01*
X5184444Y1780184D01*
X5194198Y1774443D01*
X5211419Y1773428D01*
X5219395Y1776069D01*
X5228183Y1773428D01*
X5243271Y1776069D01*
X5249570Y1779320D01*
X5266842Y1782927D01*
X5278831Y1789328D01*
X5282742Y1789328D01*
X5292293Y1796542D01*
X5309616Y1813864D01*
X5311140Y1818690D01*
X5305806Y1823008D01*
X5280202Y1821891D01*
X5270195Y1817979D01*
X5252364Y1813204D01*
X5233466Y1803704D01*
X5224373Y1797202D01*
X5220309Y1788261D01*
X5215686Y1791512D01*
X5212283Y1791563D01*
X5202783Y1799082D01*
X5196840Y1800606D01*
X5190439Y1805990D01*
X5178501Y1809445D01*
X5175859Y1812696D01*
X5160416Y1817268D01*
X5153253Y1821332D01*
X5141010Y1824126D01*
X5129885Y1829257D01*
X5115407Y1831593D01*
G37*
G36*
X5219801Y1749094D02*
G01*
X5214874Y1743862D01*
X5212892Y1728622D01*
X5212842Y1706372D01*
X5215128Y1669592D01*
X5217210Y1646224D01*
X5220563Y1633677D01*
X5223002Y1613916D01*
X5226253Y1608886D01*
X5234990Y1608886D01*
X5240680Y1613916D01*
X5242052Y1646224D01*
X5239512Y1690014D01*
X5235956Y1703019D01*
X5234178Y1711909D01*
X5231587Y1739747D01*
X5228386Y1744725D01*
G37*
G36*
X5467299Y1682191D02*
G01*
X5461406Y1681175D01*
X5457647Y1677009D01*
X5470245Y1667357D01*
X5478830Y1662887D01*
X5484012Y1658010D01*
X5492902Y1654352D01*
X5496966Y1650746D01*
X5508498Y1644751D01*
X5522163Y1638046D01*
X5523534Y1635810D01*
X5535218Y1632051D01*
X5544108Y1626971D01*
X5556758Y1624380D01*
X5598718Y1625498D01*
X5610910Y1628139D01*
X5615432Y1631086D01*
X5630976Y1634693D01*
X5640832Y1641195D01*
X5643778Y1641195D01*
X5650890Y1647342D01*
X5664708Y1660702D01*
X5667552Y1670253D01*
X5664911Y1672894D01*
X5648807Y1672691D01*
X5640781Y1669288D01*
X5624322Y1666646D01*
X5615381Y1664360D01*
X5612079Y1661566D01*
X5596026Y1656740D01*
X5594654Y1654505D01*
X5583885Y1649069D01*
X5579008Y1641195D01*
X5571693Y1641195D01*
X5561025Y1645920D01*
X5556605Y1649984D01*
X5546852Y1653336D01*
X5541010Y1657959D01*
X5529275Y1661363D01*
X5526633Y1664563D01*
X5511190Y1669135D01*
X5504027Y1673301D01*
X5488330Y1676755D01*
X5478424Y1681124D01*
G37*
G36*
X5577281Y1597761D02*
G01*
X5571794Y1593443D01*
X5569000Y1581607D01*
X5569915Y1548231D01*
X5573522Y1512570D01*
X5575706Y1485849D01*
X5581446Y1462024D01*
X5586577Y1456080D01*
X5596077Y1460957D01*
X5599531Y1469136D01*
X5598261Y1528165D01*
X5594756Y1542643D01*
X5591657Y1563827D01*
X5589219Y1586839D01*
X5585612Y1594510D01*
X5579313Y1597761D01*
G37*
D10*
X1451940Y4103115D02*
G01*
X1441526Y4113529D01*
X1426032Y4118610D01*
X1405204Y4118610D01*
X1389710Y4113529D01*
X1379296Y4103115D01*
X1379296Y4092702D01*
X1384376Y4082287D01*
X1389710Y4076954D01*
X1400124Y4071873D01*
X1431366Y4061460D01*
X1441526Y4056379D01*
X1446860Y4051045D01*
X1451940Y4040631D01*
X1451940Y4025137D01*
X1441526Y4014723D01*
X1426032Y4009644D01*
X1405204Y4009644D01*
X1389710Y4014723D01*
X1379296Y4025137D01*
X1486230Y4118610D02*
G01*
X1512392Y4009644D01*
X1538300Y4118610D02*
G01*
X1512392Y4009644D01*
X1538300Y4118610D02*
G01*
X1564208Y4009644D01*
X1590116Y4118610D02*
G01*
X1564208Y4009644D01*
X1624406Y4097781D02*
G01*
X1634820Y4103115D01*
X1650568Y4118610D01*
X1650568Y4009644D01*
X2599994Y3493109D02*
G01*
X2599994Y3415131D01*
X2605074Y3399637D01*
X2615488Y3389223D01*
X2631236Y3384143D01*
X2641650Y3384143D01*
X2657144Y3389223D01*
X2667558Y3399637D01*
X2672638Y3415131D01*
X2672638Y3493109D01*
X2706928Y3472281D02*
G01*
X2717342Y3477615D01*
X2733090Y3493109D01*
X2733090Y3384143D01*
D11*
X1349984Y-1967529D02*
G01*
X1361922Y-1961433D01*
X1379448Y-1943907D01*
X1379448Y-2067859D01*
X1424406Y-2038395D02*
G01*
X1418564Y-2044237D01*
X1424406Y-2050079D01*
X1430248Y-2044237D01*
X1424406Y-2038395D01*
X1498828Y-1943907D02*
G01*
X1481302Y-1949749D01*
X1475206Y-1961433D01*
X1475206Y-1973371D01*
X1481302Y-1985055D01*
X1492986Y-1991151D01*
X1516608Y-1996993D01*
X1534388Y-2002835D01*
X1546072Y-2014773D01*
X1552168Y-2026457D01*
X1552168Y-2044237D01*
X1546072Y-2056175D01*
X1540230Y-2062017D01*
X1522450Y-2067859D01*
X1498828Y-2067859D01*
X1481302Y-2062017D01*
X1475206Y-2056175D01*
X1469364Y-2044237D01*
X1469364Y-2026457D01*
X1475206Y-2014773D01*
X1487144Y-2002835D01*
X1504924Y-1996993D01*
X1528546Y-1991151D01*
X1540230Y-1985055D01*
X1546072Y-1973371D01*
X1546072Y-1961433D01*
X1540230Y-1949749D01*
X1522450Y-1943907D01*
X1498828Y-1943907D01*
X1591030Y-1943907D02*
G01*
X1591030Y-1985055D01*
X1638274Y-1943907D02*
G01*
X1638274Y-1985055D01*
X1768322Y-1967529D02*
G01*
X1780260Y-1961433D01*
X1797786Y-1943907D01*
X1797786Y-2067859D01*
X1842744Y-1973371D02*
G01*
X1842744Y-1967529D01*
X1848840Y-1955591D01*
X1854682Y-1949749D01*
X1866366Y-1943907D01*
X1889988Y-1943907D01*
X1901926Y-1949749D01*
X1907768Y-1955591D01*
X1913610Y-1967529D01*
X1913610Y-1979213D01*
X1907768Y-1991151D01*
X1896084Y-2008931D01*
X1836902Y-2067859D01*
X1919706Y-2067859D01*
X1988286Y-1943907D02*
G01*
X1970506Y-1949749D01*
X1964664Y-1961433D01*
X1964664Y-1973371D01*
X1970506Y-1985055D01*
X1982190Y-1991151D01*
X2005812Y-1996993D01*
X2023592Y-2002835D01*
X2035530Y-2014773D01*
X2041372Y-2026457D01*
X2041372Y-2044237D01*
X2035530Y-2056175D01*
X2029434Y-2062017D01*
X2011908Y-2067859D01*
X1988286Y-2067859D01*
X1970506Y-2062017D01*
X1964664Y-2056175D01*
X1958568Y-2044237D01*
X1958568Y-2026457D01*
X1964664Y-2014773D01*
X1976348Y-2002835D01*
X1994128Y-1996993D01*
X2017750Y-1991151D01*
X2029434Y-1985055D01*
X2035530Y-1973371D01*
X2035530Y-1961433D01*
X2029434Y-1949749D01*
X2011908Y-1943907D01*
X1988286Y-1943907D01*
X2109952Y-1979213D02*
G01*
X2109952Y-2050079D01*
X2080234Y-1996993D02*
G01*
X2139416Y-2032553D01*
X2139416Y-1996993D02*
G01*
X2080234Y-2032553D01*
X2178532Y-1967529D02*
G01*
X2190216Y-1961433D01*
X2207996Y-1943907D01*
X2207996Y-2067859D01*
X2317978Y-1961433D02*
G01*
X2311882Y-1949749D01*
X2294356Y-1943907D01*
X2282418Y-1943907D01*
X2264638Y-1949749D01*
X2252954Y-1967529D01*
X2247112Y-1996993D01*
X2247112Y-2026457D01*
X2252954Y-2050079D01*
X2264638Y-2062017D01*
X2282418Y-2067859D01*
X2288260Y-2067859D01*
X2306040Y-2062017D01*
X2317978Y-2050079D01*
X2323820Y-2032553D01*
X2323820Y-2026457D01*
X2317978Y-2008931D01*
X2306040Y-1996993D01*
X2288260Y-1991151D01*
X2282418Y-1991151D01*
X2264638Y-1996993D01*
X2252954Y-2008931D01*
X2247112Y-2026457D01*
X2398242Y-1943907D02*
G01*
X2380462Y-1949749D01*
X2368778Y-1967529D01*
X2362936Y-1996993D01*
X2362936Y-2014773D01*
X2368778Y-2044237D01*
X2380462Y-2062017D01*
X2398242Y-2067859D01*
X2410180Y-2067859D01*
X2427706Y-2062017D01*
X2439644Y-2044237D01*
X2445486Y-2014773D01*
X2445486Y-1996993D01*
X2439644Y-1967529D01*
X2427706Y-1949749D01*
X2410180Y-1943907D01*
X2398242Y-1943907D01*
X2664180Y-1973371D02*
G01*
X2658338Y-1961433D01*
X2646400Y-1949749D01*
X2634716Y-1943907D01*
X2611094Y-1943907D01*
X2599156Y-1949749D01*
X2587472Y-1961433D01*
X2581376Y-1973371D01*
X2575534Y-1991151D01*
X2575534Y-2020615D01*
X2581376Y-2038395D01*
X2587472Y-2050079D01*
X2599156Y-2062017D01*
X2611094Y-2067859D01*
X2634716Y-2067859D01*
X2646400Y-2062017D01*
X2658338Y-2050079D01*
X2664180Y-2038395D01*
X2664180Y-2020615D01*
X2634716Y-2020615D02*
G01*
X2664180Y-2020615D01*
X2703296Y-1943907D02*
G01*
X2703296Y-2067859D01*
X2703296Y-1943907D02*
G01*
X2756382Y-1943907D01*
X2774162Y-1949749D01*
X2780004Y-1955591D01*
X2785846Y-1967529D01*
X2785846Y-1979213D01*
X2780004Y-1991151D01*
X2774162Y-1996993D01*
X2756382Y-2002835D01*
X2703296Y-2002835D01*
X2744444Y-2002835D02*
G01*
X2785846Y-2067859D01*
X2824962Y-1943907D02*
G01*
X2824962Y-2067859D01*
X2824962Y-1943907D02*
G01*
X2878048Y-1943907D01*
X2895828Y-1949749D01*
X2901670Y-1955591D01*
X2907512Y-1967529D01*
X2907512Y-1979213D01*
X2901670Y-1991151D01*
X2895828Y-1996993D01*
X2878048Y-2002835D01*
X2824962Y-2002835D02*
G01*
X2878048Y-2002835D01*
X2895828Y-2008931D01*
X2901670Y-2014773D01*
X2907512Y-2026457D01*
X2907512Y-2044237D01*
X2901670Y-2056175D01*
X2895828Y-2062017D01*
X2878048Y-2067859D01*
X2824962Y-2067859D01*
X3078962Y-1943907D02*
G01*
X3078962Y-2067859D01*
X3037560Y-1943907D02*
G01*
X3120364Y-1943907D01*
X3159480Y-1943907D02*
G01*
X3159480Y-2067859D01*
X3159480Y-1943907D02*
G01*
X3236188Y-1943907D01*
X3159480Y-2002835D02*
G01*
X3206724Y-2002835D01*
X3316452Y-1943907D02*
G01*
X3316452Y-2067859D01*
X3275050Y-1943907D02*
G01*
X3357854Y-1943907D01*
X3487902Y-1943907D02*
G01*
X3487902Y-2067859D01*
X3487902Y-2067859D02*
G01*
X3558768Y-2067859D01*
X3686530Y-1973371D02*
G01*
X3680434Y-1961433D01*
X3668750Y-1949749D01*
X3656812Y-1943907D01*
X3633190Y-1943907D01*
X3621506Y-1949749D01*
X3609568Y-1961433D01*
X3603726Y-1973371D01*
X3597884Y-1991151D01*
X3597884Y-2020615D01*
X3603726Y-2038395D01*
X3609568Y-2050079D01*
X3621506Y-2062017D01*
X3633190Y-2067859D01*
X3656812Y-2067859D01*
X3668750Y-2062017D01*
X3680434Y-2050079D01*
X3686530Y-2038395D01*
X3725392Y-1943907D02*
G01*
X3725392Y-2067859D01*
X3725392Y-1943907D02*
G01*
X3766794Y-1943907D01*
X3784574Y-1949749D01*
X3796258Y-1961433D01*
X3802354Y-1973371D01*
X3808196Y-1991151D01*
X3808196Y-2020615D01*
X3802354Y-2038395D01*
X3796258Y-2050079D01*
X3784574Y-2062017D01*
X3766794Y-2067859D01*
X3725392Y-2067859D01*
D10*
X5750788Y388518D02*
G01*
X5750788Y310540D01*
X5755868Y295046D01*
X5766282Y284632D01*
X5782030Y279552D01*
X5792444Y279552D01*
X5807938Y284632D01*
X5818352Y295046D01*
X5823432Y310540D01*
X5823432Y388518D01*
X5857722Y367690D02*
G01*
X5868136Y373024D01*
X5883884Y388518D01*
X5883884Y279552D01*
X5944082Y388518D02*
G01*
X5928588Y383438D01*
X5923254Y373024D01*
X5923254Y362610D01*
X5928588Y352196D01*
X5938748Y346862D01*
X5959576Y341782D01*
X5975324Y336702D01*
X5985738Y326288D01*
X5990818Y315874D01*
X5990818Y300126D01*
X5985738Y289712D01*
X5980404Y284632D01*
X5964910Y279552D01*
X5944082Y279552D01*
X5928588Y284632D01*
X5923254Y289712D01*
X5918174Y300126D01*
X5918174Y315874D01*
X5923254Y326288D01*
X5933668Y336702D01*
X5949162Y341782D01*
X5969990Y346862D01*
X5980404Y352196D01*
X5985738Y362610D01*
X5985738Y373024D01*
X5980404Y383438D01*
X5964910Y388518D01*
X5944082Y388518D01*
D12*
X6488404Y-1047597D02*
G01*
X6419062Y-1047597D01*
X6405092Y-1052169D01*
X6395948Y-1061567D01*
X6391376Y-1075283D01*
X6391376Y-1084427D01*
X6395948Y-1098397D01*
X6405092Y-1107541D01*
X6419062Y-1112367D01*
X6488404Y-1112367D01*
X6474434Y-1207363D02*
G01*
X6483578Y-1198219D01*
X6488404Y-1184249D01*
X6488404Y-1165707D01*
X6483578Y-1151991D01*
X6474434Y-1142847D01*
X6465290Y-1142847D01*
X6455892Y-1147419D01*
X6451320Y-1151991D01*
X6446748Y-1161135D01*
X6437604Y-1188821D01*
X6432778Y-1198219D01*
X6428206Y-1202791D01*
X6419062Y-1207363D01*
X6405092Y-1207363D01*
X6395948Y-1198219D01*
X6391376Y-1184249D01*
X6391376Y-1165707D01*
X6395948Y-1151991D01*
X6405092Y-1142847D01*
X6488404Y-1237843D02*
G01*
X6391376Y-1237843D01*
X6488404Y-1237843D02*
G01*
X6488404Y-1279499D01*
X6483578Y-1293215D01*
X6479006Y-1297787D01*
X6469862Y-1302613D01*
X6460718Y-1302613D01*
X6451320Y-1297787D01*
X6446748Y-1293215D01*
X6442176Y-1279499D01*
X6442176Y-1237843D02*
G01*
X6442176Y-1279499D01*
X6437604Y-1293215D01*
X6432778Y-1297787D01*
X6423634Y-1302613D01*
X6409918Y-1302613D01*
X6400520Y-1297787D01*
X6395948Y-1293215D01*
X6391376Y-1279499D01*
X6391376Y-1237843D01*
D11*
X5474512Y141691D02*
G01*
X5483656Y150835D01*
X5487974Y164551D01*
X5487974Y182585D01*
X5483656Y196301D01*
X5474512Y205445D01*
X5465368Y205445D01*
X5456224Y200873D01*
X5451652Y196301D01*
X5447080Y187157D01*
X5438190Y159979D01*
X5433618Y150835D01*
X5429046Y146263D01*
X5419902Y141691D01*
X5406186Y141691D01*
X5397296Y150835D01*
X5392724Y164551D01*
X5392724Y182585D01*
X5397296Y196301D01*
X5406186Y205445D01*
X5487974Y111719D02*
G01*
X5392724Y111719D01*
X5487974Y111719D02*
G01*
X5487974Y79969D01*
X5483656Y66253D01*
X5474512Y57109D01*
X5465368Y52791D01*
X5451652Y48219D01*
X5429046Y48219D01*
X5415330Y52791D01*
X5406186Y57109D01*
X5397296Y66253D01*
X5392724Y79969D01*
X5392724Y111719D01*
X5487974Y-18328D02*
G01*
X5392724Y18247D01*
X5487974Y-18328D02*
G01*
X5392724Y-54650D01*
X5424474Y4531D02*
G01*
X5424474Y-40934D01*
X5234416Y121879D02*
G01*
X5243560Y130769D01*
X5248132Y144485D01*
X5248132Y162773D01*
X5243560Y176235D01*
X5234416Y185379D01*
X5225272Y185379D01*
X5216382Y180807D01*
X5211810Y176235D01*
X5207238Y167345D01*
X5198094Y139913D01*
X5193522Y130769D01*
X5188950Y126197D01*
X5179806Y121879D01*
X5166344Y121879D01*
X5157200Y130769D01*
X5152628Y144485D01*
X5152628Y162773D01*
X5157200Y176235D01*
X5166344Y185379D01*
X5225272Y23581D02*
G01*
X5234416Y28153D01*
X5243560Y37297D01*
X5248132Y46187D01*
X5248132Y64475D01*
X5243560Y73619D01*
X5234416Y82763D01*
X5225272Y87335D01*
X5211810Y91653D01*
X5188950Y91653D01*
X5175234Y87335D01*
X5166344Y82763D01*
X5157200Y73619D01*
X5152628Y64475D01*
X5152628Y46187D01*
X5157200Y37297D01*
X5166344Y28153D01*
X5175234Y23581D01*
X5248132Y-6390D02*
G01*
X5152628Y-6390D01*
X5152628Y-6390D02*
G01*
X5152628Y-61000D01*
X4978087Y78983D02*
G01*
X4882631Y78983D01*
X4978087Y110802D02*
G01*
X4978087Y47165D01*
X4978087Y17165D02*
G01*
X4882631Y-46469D01*
X4978087Y-46469D02*
G01*
X4882631Y17165D01*
X5758070Y95445D02*
G01*
X5662566Y95445D01*
X5758070Y95445D02*
G01*
X5758070Y63695D01*
X5753498Y49979D01*
X5744354Y40835D01*
X5735464Y36263D01*
X5721748Y31691D01*
X5698888Y31691D01*
X5685426Y36263D01*
X5676282Y40835D01*
X5667138Y49979D01*
X5662566Y63695D01*
X5662566Y95445D01*
X5758070Y-7424D02*
G01*
X5758070Y-57208D01*
X5721748Y-30030D01*
X5721748Y-43746D01*
X5717176Y-52890D01*
X5712604Y-57208D01*
X5698888Y-61780D01*
X5689998Y-61780D01*
X5676282Y-57208D01*
X5667138Y-48318D01*
X5662566Y-34602D01*
X5662566Y-20886D01*
X5667138Y-7424D01*
X5671710Y-2852D01*
X5680854Y1719D01*
X5998085Y95402D02*
G01*
X5902629Y95402D01*
X5998085Y95402D02*
G01*
X5998085Y63583D01*
X5993538Y49949D01*
X5984448Y40855D01*
X5975357Y36311D01*
X5961722Y31765D01*
X5938994Y31765D01*
X5925357Y36311D01*
X5916267Y40855D01*
X5907176Y49949D01*
X5902629Y63583D01*
X5902629Y95402D01*
X5975357Y-2778D02*
G01*
X5979904Y-2778D01*
X5988994Y-7325D01*
X5993538Y-11869D01*
X5998085Y-20960D01*
X5998085Y-39143D01*
X5993538Y-48234D01*
X5988994Y-52778D01*
X5979904Y-57325D01*
X5970813Y-57325D01*
X5961722Y-52778D01*
X5948085Y-43687D01*
X5902629Y1765D01*
X5902629Y-61869D01*
X6508084Y95402D02*
G01*
X6412628Y95402D01*
X6508084Y95402D02*
G01*
X6508084Y63583D01*
X6503537Y49949D01*
X6494447Y40855D01*
X6485356Y36311D01*
X6471721Y31765D01*
X6448993Y31765D01*
X6435356Y36311D01*
X6426266Y40855D01*
X6417175Y49949D01*
X6412628Y63583D01*
X6412628Y95402D01*
X6508084Y-25506D02*
G01*
X6503537Y-11869D01*
X6489903Y-2778D01*
X6467175Y1765D01*
X6453538Y1765D01*
X6430812Y-2778D01*
X6417175Y-11869D01*
X6412628Y-25506D01*
X6412628Y-34597D01*
X6417175Y-48234D01*
X6430812Y-57325D01*
X6453538Y-61869D01*
X6467175Y-61869D01*
X6489903Y-57325D01*
X6503537Y-48234D01*
X6508084Y-34597D01*
X6508084Y-25506D01*
X6258064Y95321D02*
G01*
X6162560Y95321D01*
X6258064Y95321D02*
G01*
X6258064Y63571D01*
X6253492Y49855D01*
X6244348Y40965D01*
X6235458Y36393D01*
X6221742Y31821D01*
X6198882Y31821D01*
X6185420Y36393D01*
X6176276Y40965D01*
X6167132Y49855D01*
X6162560Y63571D01*
X6162560Y95321D01*
X6239776Y1849D02*
G01*
X6244348Y-7294D01*
X6258064Y-21010D01*
X6162560Y-21010D01*
X5496026Y-2342997D02*
G01*
X5400522Y-2342997D01*
X5496026Y-2342997D02*
G01*
X5400522Y-2379319D01*
X5496026Y-2415641D02*
G01*
X5400522Y-2379319D01*
X5496026Y-2415641D02*
G01*
X5400522Y-2415641D01*
X5496026Y-2445613D02*
G01*
X5400522Y-2445613D01*
X5482564Y-2539339D02*
G01*
X5491454Y-2530195D01*
X5496026Y-2516733D01*
X5496026Y-2498445D01*
X5491454Y-2484729D01*
X5482564Y-2475839D01*
X5473420Y-2475839D01*
X5464276Y-2480157D01*
X5459704Y-2484729D01*
X5455132Y-2493873D01*
X5445988Y-2521305D01*
X5441670Y-2530195D01*
X5437098Y-2534767D01*
X5427954Y-2539339D01*
X5414238Y-2539339D01*
X5405094Y-2530195D01*
X5400522Y-2516733D01*
X5400522Y-2498445D01*
X5405094Y-2484729D01*
X5414238Y-2475839D01*
X5496026Y-2596743D02*
G01*
X5491454Y-2587599D01*
X5482564Y-2578455D01*
X5473420Y-2573883D01*
X5459704Y-2569311D01*
X5437098Y-2569311D01*
X5423382Y-2573883D01*
X5414238Y-2578455D01*
X5405094Y-2587599D01*
X5400522Y-2596743D01*
X5400522Y-2614777D01*
X5405094Y-2623921D01*
X5414238Y-2633065D01*
X5423382Y-2637637D01*
X5437098Y-2642209D01*
X5459704Y-2642209D01*
X5473420Y-2637637D01*
X5482564Y-2633065D01*
X5491454Y-2623921D01*
X5496026Y-2614777D01*
X5496026Y-2596743D01*
X5228564Y-2406751D02*
G01*
X5237454Y-2397607D01*
X5242026Y-2383891D01*
X5242026Y-2365603D01*
X5237454Y-2352141D01*
X5228564Y-2342997D01*
X5219420Y-2342997D01*
X5210276Y-2347569D01*
X5205704Y-2352141D01*
X5201132Y-2361285D01*
X5191988Y-2388463D01*
X5187670Y-2397607D01*
X5183098Y-2402179D01*
X5173954Y-2406751D01*
X5160238Y-2406751D01*
X5151094Y-2397607D01*
X5146522Y-2383891D01*
X5146522Y-2365603D01*
X5151094Y-2352141D01*
X5160238Y-2342997D01*
X5219420Y-2504795D02*
G01*
X5228564Y-2500223D01*
X5237454Y-2491079D01*
X5242026Y-2482189D01*
X5242026Y-2463901D01*
X5237454Y-2454757D01*
X5228564Y-2445613D01*
X5219420Y-2441295D01*
X5205704Y-2436723D01*
X5183098Y-2436723D01*
X5169382Y-2441295D01*
X5160238Y-2445613D01*
X5151094Y-2454757D01*
X5146522Y-2463901D01*
X5146522Y-2482189D01*
X5151094Y-2491079D01*
X5160238Y-2500223D01*
X5169382Y-2504795D01*
X5242026Y-2534767D02*
G01*
X5146522Y-2534767D01*
X5242026Y-2598521D02*
G01*
X5178526Y-2534767D01*
X5201132Y-2557627D02*
G01*
X5146522Y-2598521D01*
X4988026Y-2342997D02*
G01*
X4892522Y-2342997D01*
X4988026Y-2342997D02*
G01*
X4988026Y-2383891D01*
X4983454Y-2397607D01*
X4978882Y-2402179D01*
X4969992Y-2406751D01*
X4960848Y-2406751D01*
X4951704Y-2402179D01*
X4947132Y-2397607D01*
X4942560Y-2383891D01*
X4942560Y-2342997D01*
X4942560Y-2374747D02*
G01*
X4892522Y-2406751D01*
X4988026Y-2436723D02*
G01*
X4892522Y-2500223D01*
X4988026Y-2500223D02*
G01*
X4892522Y-2436723D01*
X5750026Y-2342997D02*
G01*
X5654522Y-2342997D01*
X5750026Y-2342997D02*
G01*
X5654522Y-2379319D01*
X5750026Y-2415641D02*
G01*
X5654522Y-2379319D01*
X5750026Y-2415641D02*
G01*
X5654522Y-2415641D01*
X5750026Y-2473045D02*
G01*
X5745454Y-2463901D01*
X5736564Y-2454757D01*
X5727420Y-2450185D01*
X5713704Y-2445613D01*
X5691098Y-2445613D01*
X5677382Y-2450185D01*
X5668238Y-2454757D01*
X5659094Y-2463901D01*
X5654522Y-2473045D01*
X5654522Y-2491079D01*
X5659094Y-2500223D01*
X5668238Y-2509367D01*
X5677382Y-2513939D01*
X5691098Y-2518511D01*
X5713704Y-2518511D01*
X5727420Y-2513939D01*
X5736564Y-2509367D01*
X5745454Y-2500223D01*
X5750026Y-2491079D01*
X5750026Y-2473045D01*
X5736564Y-2611983D02*
G01*
X5745454Y-2603093D01*
X5750026Y-2589377D01*
X5750026Y-2571089D01*
X5745454Y-2557627D01*
X5736564Y-2548483D01*
X5727420Y-2548483D01*
X5718276Y-2553055D01*
X5713704Y-2557627D01*
X5709132Y-2566517D01*
X5699988Y-2593949D01*
X5695670Y-2603093D01*
X5691098Y-2607665D01*
X5681954Y-2611983D01*
X5668238Y-2611983D01*
X5659094Y-2603093D01*
X5654522Y-2589377D01*
X5654522Y-2571089D01*
X5659094Y-2557627D01*
X5668238Y-2548483D01*
X5750026Y-2642209D02*
G01*
X5654522Y-2642209D01*
X6004026Y-2352141D02*
G01*
X6004026Y-2402179D01*
X5967704Y-2374747D01*
X5967704Y-2388463D01*
X5963132Y-2397607D01*
X5958560Y-2402179D01*
X5945098Y-2406751D01*
X5935954Y-2406751D01*
X5922238Y-2402179D01*
X5913094Y-2393035D01*
X5908522Y-2379319D01*
X5908522Y-2365603D01*
X5913094Y-2352141D01*
X5917666Y-2347569D01*
X5926810Y-2342997D01*
X6004026Y-2436723D02*
G01*
X5908522Y-2473045D01*
X6004026Y-2509367D02*
G01*
X5908522Y-2473045D01*
X6004026Y-2548483D02*
G01*
X6004026Y-2598521D01*
X5967704Y-2571089D01*
X5967704Y-2584805D01*
X5963132Y-2593949D01*
X5958560Y-2598521D01*
X5945098Y-2603093D01*
X5935954Y-2603093D01*
X5922238Y-2598521D01*
X5913094Y-2589377D01*
X5908522Y-2575661D01*
X5908522Y-2562199D01*
X5913094Y-2548483D01*
X5917666Y-2543911D01*
X5926810Y-2539339D01*
X6512026Y-2397607D02*
G01*
X6512026Y-2352141D01*
X6471132Y-2347569D01*
X6475704Y-2352141D01*
X6480276Y-2365603D01*
X6480276Y-2379319D01*
X6475704Y-2393035D01*
X6466560Y-2402179D01*
X6453098Y-2406751D01*
X6443954Y-2406751D01*
X6430238Y-2402179D01*
X6421094Y-2393035D01*
X6416522Y-2379319D01*
X6416522Y-2365603D01*
X6421094Y-2352141D01*
X6425666Y-2347569D01*
X6434810Y-2342997D01*
X6512026Y-2436723D02*
G01*
X6416522Y-2473045D01*
X6512026Y-2509367D02*
G01*
X6416522Y-2473045D01*
X6235420Y-2411069D02*
G01*
X6244564Y-2406751D01*
X6253454Y-2397607D01*
X6258026Y-2388463D01*
X6258026Y-2370175D01*
X6253454Y-2361285D01*
X6244564Y-2352141D01*
X6235420Y-2347569D01*
X6221704Y-2342997D01*
X6199098Y-2342997D01*
X6185382Y-2347569D01*
X6176238Y-2352141D01*
X6167094Y-2361285D01*
X6162522Y-2370175D01*
X6162522Y-2388463D01*
X6167094Y-2397607D01*
X6176238Y-2406751D01*
X6185382Y-2411069D01*
X6199098Y-2411069D01*
X6199098Y-2388463D02*
G01*
X6199098Y-2411069D01*
X6258026Y-2441295D02*
G01*
X6162522Y-2441295D01*
X6258026Y-2441295D02*
G01*
X6162522Y-2504795D01*
X6258026Y-2504795D02*
G01*
X6162522Y-2504795D01*
X6258026Y-2534767D02*
G01*
X6162522Y-2534767D01*
X6258026Y-2534767D02*
G01*
X6258026Y-2566517D01*
X6253454Y-2580233D01*
X6244564Y-2589377D01*
X6235420Y-2593949D01*
X6221704Y-2598521D01*
X6199098Y-2598521D01*
X6185382Y-2593949D01*
X6176238Y-2589377D01*
X6167094Y-2580233D01*
X6162522Y-2566517D01*
X6162522Y-2534767D01*
X5898667Y-1225270D02*
G01*
X5975121Y-1225270D01*
X5898667Y-1225270D02*
G01*
X5898667Y-1192758D01*
X5902223Y-1181836D01*
X5906033Y-1178026D01*
X5913145Y-1174470D01*
X5920511Y-1174470D01*
X5927877Y-1178026D01*
X5931433Y-1181836D01*
X5934989Y-1192758D01*
X5934989Y-1225270D02*
G01*
X5934989Y-1192758D01*
X5938545Y-1181836D01*
X5942355Y-1178026D01*
X5949467Y-1174470D01*
X5960389Y-1174470D01*
X5967755Y-1178026D01*
X5971311Y-1181836D01*
X5975121Y-1192758D01*
X5975121Y-1225270D01*
X5898667Y-1121384D02*
G01*
X5975121Y-1150594D01*
X5898667Y-1121384D02*
G01*
X5975121Y-1092428D01*
X5949467Y-1139672D02*
G01*
X5949467Y-1103096D01*
X5898667Y-1042898D02*
G01*
X5975121Y-1042898D01*
X5898667Y-1068298D02*
G01*
X5898667Y-1017498D01*
X5942355Y-993368D02*
G01*
X5942355Y-927836D01*
X5695492Y-1225270D02*
G01*
X5771946Y-1225270D01*
X5695492Y-1225270D02*
G01*
X5695492Y-1192758D01*
X5699048Y-1181836D01*
X5702858Y-1178026D01*
X5709970Y-1174470D01*
X5717336Y-1174470D01*
X5724448Y-1178026D01*
X5728258Y-1181836D01*
X5731814Y-1192758D01*
X5731814Y-1225270D02*
G01*
X5731814Y-1192758D01*
X5735370Y-1181836D01*
X5739180Y-1178026D01*
X5746292Y-1174470D01*
X5757214Y-1174470D01*
X5764580Y-1178026D01*
X5768136Y-1181836D01*
X5771946Y-1192758D01*
X5771946Y-1225270D01*
X5695492Y-1121384D02*
G01*
X5771946Y-1150594D01*
X5695492Y-1121384D02*
G01*
X5771946Y-1092428D01*
X5746292Y-1139672D02*
G01*
X5746292Y-1103096D01*
X5695492Y-1042898D02*
G01*
X5771946Y-1042898D01*
X5695492Y-1068298D02*
G01*
X5695492Y-1017498D01*
X5706414Y-960602D02*
G01*
X5771946Y-960602D01*
X5739180Y-993368D02*
G01*
X5739180Y-927836D01*
X5293588Y-1500225D02*
G01*
X5293588Y-1576679D01*
X5268188Y-1500225D02*
G01*
X5318988Y-1500225D01*
X5343118Y-1500225D02*
G01*
X5343118Y-1576679D01*
X5393918Y-1500225D02*
G01*
X5393918Y-1576679D01*
X5343118Y-1536547D02*
G01*
X5393918Y-1536547D01*
X5418048Y-1500225D02*
G01*
X5418048Y-1576679D01*
X5418048Y-1500225D02*
G01*
X5465292Y-1500225D01*
X5418048Y-1536547D02*
G01*
X5447004Y-1536547D01*
X5418048Y-1576679D02*
G01*
X5465292Y-1576679D01*
X5489168Y-1500225D02*
G01*
X5489168Y-1576679D01*
X5489168Y-1500225D02*
G01*
X5521934Y-1500225D01*
X5532856Y-1503781D01*
X5536666Y-1507591D01*
X5540222Y-1514703D01*
X5540222Y-1522069D01*
X5536666Y-1529435D01*
X5532856Y-1532991D01*
X5521934Y-1536547D01*
X5489168Y-1536547D01*
X5514822Y-1536547D02*
G01*
X5540222Y-1576679D01*
X5564098Y-1500225D02*
G01*
X5564098Y-1576679D01*
X5564098Y-1500225D02*
G01*
X5593308Y-1576679D01*
X5622264Y-1500225D02*
G01*
X5593308Y-1576679D01*
X5622264Y-1500225D02*
G01*
X5622264Y-1576679D01*
D13*
X1190000Y3959992D02*
G01*
X1609999Y3959992D01*
X1190000Y3639992D02*
G01*
X1609999Y3639992D01*
X1190000Y3849377D02*
G01*
X1190000Y3750607D01*
X1609999Y3750607D02*
G01*
X1609999Y3849377D01*
X1323670Y3723894D02*
G01*
X1476070Y3723894D01*
X1323670Y3876294D02*
G01*
X1476197Y3876192D01*
X1190000Y3849377D02*
G01*
X1190000Y3849390D01*
X1190061Y3849451D01*
X1248036Y3907426D02*
G01*
X1300601Y3959992D01*
X1551957Y3913106D02*
G01*
X1505071Y3959992D01*
X1551957Y3681798D02*
G01*
X1510151Y3639992D01*
X1248036Y3684938D02*
G01*
X1292981Y3639992D01*
X6749186Y-1885797D02*
G01*
X6749186Y-514197D01*
D14*
X6588988Y-310997D02*
G01*
X6588988Y-564997D01*
X4810988Y-564997D01*
X4810988Y-310997D01*
X6588988Y-310997D01*
D13*
X6545986Y-310997D02*
G01*
X4852390Y-310997D01*
D14*
X4810988Y-2088997D02*
G01*
X4810988Y-1834997D01*
X6588988Y-1834997D01*
X6588988Y-2088997D01*
X4810988Y-2088997D01*
D13*
X4639030Y-514197D02*
G01*
X4639030Y-1885797D01*
X4852390Y-2088997D02*
G01*
X6545986Y-2088997D01*
X6157188Y-742797D02*
G01*
X6893788Y-742797D01*
X6893788Y-1654073D01*
X6157188Y-1654073D01*
X6157188Y-742797D01*
G75*
G01*
X1476197Y3876192D02*
G02*
X1476070Y3723894I-63J-76149D01*
G75*
G01*
X1323670Y3723894D02*
G02*
X1323670Y3876294I0J76200D01*
G75*
G01*
X6545986Y-2088998D02*
G03*
X6749186Y-1885798I0J203200D01*
G75*
G01*
X6749186Y-514198D02*
G03*
X6545986Y-310998I-203200J0D01*
G75*
G01*
X4639031Y-1885798D02*
G03*
X4852391Y-2088998I208269J5069D01*
G75*
G01*
X4852391Y-310998D02*
G03*
X4639031Y-514198I-5091J-208268D01*
M02*
