G04 Layer: TopLayer*
G04 EasyEDA v6.5.54, 2026-09-21 04:09:53*
G04 05c5b878ee5d4a82a683c83241055972,514c6cc1849444d89c4331f6548c3519,10*
G04 Gerber Generator version 0.2*
G04 Scale: 100 percent, Rotated: No, Reflected: No *
G04 Dimensions in millimeters *
G04 leading zeros omitted , absolute positions ,4 integer and 5 decimal *
%FSLAX45Y45*%
%MOMM*%

%ADD10C,0.2540*%
%ADD11R,1.0000X0.7000*%
%ADD12O,1.199998X2.299995*%
%ADD13R,2.6000X2.6000*%
%ADD14O,1.699997X3.999992*%
%ADD15R,1.5240X1.5240*%
%ADD16C,1.5240*%
%ADD17C,1.4999*%
%ADD18C,0.6096*%
%ADD19C,0.0165*%

%LPD*%
D10*
X5699991Y-310997D02*
G01*
X5699991Y94843D01*
X5717313Y112166D01*
X5699991Y-437997D02*
G01*
X5699991Y-310997D01*
X5953991Y-437997D02*
G01*
X5953991Y-310997D01*
X1722503Y3887952D02*
G01*
X1702970Y3907485D01*
X1624992Y3907485D02*
G01*
X1702970Y3907485D01*
X4937991Y-437997D02*
G01*
X4937991Y-310997D01*
X5953991Y-1961997D02*
G01*
X5953991Y-2088997D01*
X6207991Y-437997D02*
G01*
X6207991Y-310997D01*
X5445991Y-437997D02*
G01*
X5445991Y-310997D01*
X6461991Y-437997D02*
G01*
X6461991Y-310997D01*
X5191991Y-437997D02*
G01*
X5191991Y-310997D01*
X1624992Y3692499D02*
G01*
X1624992Y3629532D01*
X1710997Y3199993D02*
G01*
X1710997Y3543528D01*
X1624992Y3629532D01*
X5495394Y-1310004D02*
G01*
X5495394Y-1467967D01*
X6207991Y-2025497D02*
G01*
X5650461Y-1467967D01*
X5495394Y-1467967D01*
X6207991Y-2025497D02*
G01*
X6207991Y-2088997D01*
X6207991Y-1961997D02*
G01*
X6207991Y-2025497D01*
X6461991Y-1961997D02*
G01*
X6461991Y-2088997D01*
X5699991Y-1961997D02*
G01*
X5699991Y-2088997D01*
X5445991Y-1961997D02*
G01*
X5445991Y-2088997D01*
X5191991Y-1961997D02*
G01*
X5191991Y-2088997D01*
X4937991Y-1961997D02*
G01*
X4937991Y-2088997D01*
D11*
G01*
X1175004Y3907485D03*
G01*
X1624990Y3907485D03*
G01*
X1624990Y3692499D03*
G01*
X1175004Y3692499D03*
D12*
G01*
X5928588Y-755497D03*
G01*
X5733592Y-755497D03*
D13*
G01*
X5495391Y-1310004D03*
D14*
G01*
X4937988Y-310997D03*
G01*
X5191988Y-310997D03*
G01*
X5445988Y-310997D03*
G01*
X5699988Y-310997D03*
G01*
X5953988Y-310997D03*
G01*
X6207988Y-310997D03*
G01*
X6461988Y-310997D03*
G01*
X4937988Y-2088997D03*
G01*
X5191988Y-2088997D03*
G01*
X5445988Y-2088997D03*
G01*
X5699988Y-2088997D03*
G01*
X5953988Y-2088997D03*
G01*
X6207988Y-2088997D03*
G01*
X6461988Y-2088997D03*
D15*
G01*
X1710994Y3199993D03*
D16*
G01*
X1964994Y3199993D03*
G01*
X2218994Y3199993D03*
G01*
X2472994Y3199993D03*
G01*
X2726994Y3199993D03*
G01*
X2980994Y3199993D03*
G01*
X3234994Y3199993D03*
G01*
X3488994Y3199993D03*
D17*
G01*
X6461988Y-437997D03*
G01*
X5191988Y-1961997D03*
G01*
X5445988Y-1961997D03*
G01*
X5699988Y-1961997D03*
G01*
X5953988Y-1961997D03*
G01*
X6207988Y-1961997D03*
G01*
X6461988Y-1961997D03*
G01*
X4937988Y-1961997D03*
G01*
X6207988Y-437997D03*
G01*
X5953988Y-437997D03*
G01*
X5699988Y-437997D03*
G01*
X5445988Y-437997D03*
G01*
X5191988Y-437997D03*
G01*
X4937988Y-437997D03*
D18*
G01*
X5717311Y112166D03*
G01*
X3931284Y1904187D03*
G01*
X1722501Y3887952D03*
M02*
